<?xml version="1.0" encoding="UTF-8" standalone="no"?>
<!-- Created with Inkscape (http://www.inkscape.org/) -->

<svg
   version="1.1"
   id="svg1"
   width="390.97525"
   height="70.66761"
   viewBox="0 0 390.97525 70.66761"
   xml:space="preserve"
   xmlns="http://www.w3.org/2000/svg"
   xmlns:svg="http://www.w3.org/2000/svg"><defs
     id="defs1" /><g
     id="g1"
     transform="translate(-21.662109,-14.272127)"><path
       id="rect1"
       style="fill:#ffffff;fill-opacity:1;stroke:#1d1d1d;stroke-width:0;stroke-linecap:round;stroke-linejoin:round;stroke-dashoffset:20.5702"
       d="m 21.662109,15.486328 v 62.63086 h 7.839844 V 25.878906 l 39.408203,52.238282 h 7.841797 V 15.486328 H 68.910156 V 67.722656 L 29.501953,15.486328 Z" /><path
       id="rect1-97"
       style="fill:#ffffff;fill-opacity:1;stroke:#1d1d1d;stroke-width:0;stroke-linecap:round;stroke-linejoin:round;stroke-dashoffset:20.5702"
       d="m 357.54751,15.486339 v 62.63086 h 7.83985 V 25.878917 l 39.4082,52.238282 h 7.84179 v -62.63086 h -7.84179 v 52.236328 l -39.4082,-52.236328 z" /><rect
       style="fill:#ffffff;fill-opacity:1;stroke:#1d1d1d;stroke-width:0;stroke-linecap:round;stroke-linejoin:round;stroke-dashoffset:20.5702"
       id="rect1-9"
       width="7.8411841"
       height="65.122337"
       x="133.48238"
       y="16.10224"
       transform="matrix(1,0,0.2739259,0.9617508,0,0)" /><rect
       style="fill:#ffffff;fill-opacity:1;stroke:#1d1d1d;stroke-width:0;stroke-linecap:round;stroke-linejoin:round;stroke-dashoffset:20.5702"
       id="rect1-9-4"
       width="7.8411841"
       height="65.122337"
       x="-224.46768"
       y="16.10224"
       transform="matrix(-1,0,-0.2739259,0.9617508,0,0)" /><rect
       style="fill:#ffffff;fill-opacity:1;stroke:#1d1d1d;stroke-width:0;stroke-linecap:round;stroke-linejoin:round;stroke-dashoffset:20.5702"
       id="rect1-9-4-3"
       width="7.8411841"
       height="58.097637"
       x="-191.12239"
       y="24.735661"
       transform="matrix(-1,0,-0.3325874,0.94307244,0,0)" /><rect
       style="fill:#ffffff;fill-opacity:1;stroke:#1d1d1d;stroke-width:0;stroke-linecap:round;stroke-linejoin:round;stroke-dashoffset:20.5702"
       id="rect1-9-4-3-9"
       width="7.8411841"
       height="58.097637"
       x="166.82767"
       y="24.735661"
       transform="matrix(1,0,0.3325874,0.94307244,0,0)" /><rect
       style="fill:#ffffff;fill-opacity:1;stroke:#1d1d1d;stroke-width:0;stroke-linecap:round;stroke-linejoin:round;stroke-dashoffset:20.5702"
       id="rect1-6-7"
       width="7.8411841"
       height="49.105415"
       x="252.47499"
       y="29.012386" /><path
       id="rect2"
       style="fill:#ffffff;fill-opacity:1;stroke:#1d1d1d;stroke-width:0;stroke-linecap:round;stroke-linejoin:round;stroke-dashoffset:20.5702"
       d="m 85.46875,15.486328 v 6.664062 13.330078 h 7.056641 V 22.15039 H 128.20312 V 15.486328 H 92.525391 Z m 0,42.636718 v 13.330079 6.664062 h 7.056641 35.677729 V 71.453125 H 92.525391 V 58.123046 Z" /><rect
       style="fill:#ffffff;fill-opacity:1;stroke:#1d1d1d;stroke-width:0;stroke-linecap:round;stroke-linejoin:round;stroke-dashoffset:20.5702"
       id="rect2-5"
       width="49.007412"
       height="6.6650062"
       x="231.89188"
       y="15.486339" /><rect
       style="fill:#ffffff;fill-opacity:1;stroke:#1d1d1d;stroke-width:0;stroke-linecap:round;stroke-linejoin:round;stroke-dashoffset:20.5702"
       id="rect4"
       width="40.578045"
       height="6.1749325"
       x="85.46875"
       y="43.322544" /><path
       d="m 294.23887,79.094508 c -0.05,-3.67e-4 -0.0971,5.04e-4 -0.14143,0.0035 -0.70967,0.043 -0.73315,0.460883 -1.39552,0.512276 l -0.25839,0.445895 c 0.85933,0.995515 0.68393,1.511966 0.61325,1.642975 l 0.22411,-0.384191 c 0.53433,-0.107382 2.86004,0.912474 5.77052,2.173461 4.75291,2.058201 5.53911,1.387432 6.48756,1.181844 0.0251,-0.0055 0.0393,-0.0095 0.0393,-0.0095 l 0.33595,-0.579669 c -0.86509,-1.222861 -0.71972,-1.49049 -0.71964,-1.49061 l -0.16102,0.258385 c -0.44395,0.02988 -1.71326,-0.436676 -5.42344,-2.013642 -3.19416,-1.35772 -4.62062,-1.734365 -5.37122,-1.740714 z"
       style="fill:#ffffff;fill-opacity:1;fill-rule:evenodd;stroke-width:0.0833501"
       id="path14" /><path
       d="m 296.40196,75.642476 c -0.05,-4.88e-4 -0.0971,5.02e-4 -0.14148,0.0035 -0.70972,0.04246 -0.73297,0.459542 -1.39453,0.51114 l -0.25901,0.446841 c 0.85649,0.991355 0.68565,1.508944 0.61514,1.643609 l 0.2219,-0.386278 c 0.53459,-0.108184 2.85984,0.913695 5.77115,2.175105 4.75737,2.06278 5.54196,1.385898 6.49149,1.179883 0.0216,-0.0041 0.035,-0.0096 0.035,-0.0096 l 0.3357,-0.577396 c -0.86336,-1.22214 -0.71989,-1.492013 -0.71952,-1.49238 l -0.15887,0.260468 c -0.44597,0.03018 -1.71571,-0.437667 -5.42572,-2.014652 -3.19396,-1.356549 -4.62058,-1.73326 -5.37122,-1.74008 z"
       style="fill:#ffffff;fill-opacity:1;fill-rule:evenodd;stroke-width:0.0833501"
       id="path13" /><path
       d="m 298.18283,72.271684 c -0.05,-4.94e-4 -0.0971,5.02e-4 -0.1415,0.0035 v 6.6e-5 c -0.70993,0.04255 -0.73394,0.460084 -1.3959,0.511266 l -0.25768,0.447157 c 0.85931,0.996315 0.68404,1.512037 0.61418,1.643484 l 0.22335,-0.384192 c 0.5338,-0.108194 2.86009,0.911573 5.7697,2.173335 4.75474,2.059867 5.54172,1.385828 6.48934,1.180198 0.023,-0.0041 0.0374,-0.0094 0.0374,-0.0094 l 0.33602,-0.579483 c -0.86371,-1.222332 -0.71818,-1.489981 -0.71818,-1.489981 v 1.3e-4 l -0.16114,0.259838 c -0.44496,0.02988 -1.71351,-0.436594 -5.42478,-2.01282 -3.19332,-1.358862 -4.6199,-1.736132 -5.37071,-1.742928 z"
       style="fill:#ffffff;fill-opacity:1;fill-rule:evenodd;stroke-width:0.0833501"
       id="path10" /><path
       d="m 300.27194,68.947229 c -0.05,-3.69e-4 -0.0971,5.02e-4 -0.14142,0.0035 -0.70985,0.04306 -0.73355,0.460809 -1.39591,0.511959 l -0.25768,0.446973 c 0.85818,0.992255 0.68512,1.511081 0.61456,1.643668 l 0.22267,-0.385835 c 0.53416,-0.108183 2.86002,0.911125 5.77083,2.174979 4.755,2.059505 5.53948,1.385375 6.48852,1.180642 0.0232,-0.0041 0.0374,-0.0081 0.0374,-0.0081 l 0.33614,-0.580811 c -0.86624,-1.222018 -0.71921,-1.489161 -0.71921,-1.489161 l -0.15969,0.2575 c -0.4451,0.02907 -1.71595,-0.437636 -5.42489,-2.015407 -3.19403,-1.357343 -4.62066,-1.733631 -5.3714,-1.739894 z"
       style="fill:#ffffff;fill-opacity:1;fill-rule:evenodd;stroke-width:0.0833501"
       id="path9" /><path
       d="m 315.05336,49.608123 -10.41459,19.402137 2.88211,1.496494 10.41438,-19.401 z"
       style="fill:#ffffff;fill-opacity:1;fill-rule:evenodd;stroke-width:0.0833501"
       id="path8" /><path
       d="m 317.25469,31.009137 c -9.33603,-0.204135 -17.07235,7.29017 -17.27899,16.739669 -0.0976,4.46201 1.50269,8.555677 4.20113,11.662611 l 2.07919,-1.9049 c -2.19975,-2.551681 -3.50189,-5.910994 -3.422,-9.564321 0.1701,-7.777516 6.53745,-13.946005 14.22172,-13.77797 7.68443,0.16805 13.77603,6.608962 13.60594,14.386468 -0.17005,7.777526 -6.53742,13.946342 -14.22189,13.778287 -0.33685,-0.0069 -0.67031,-0.02847 -1.00098,-0.05892 l -0.41017,2.859148 c 0.48758,0.0545 0.97884,0.08776 1.4779,0.09863 9.33629,0.204145 17.07229,-7.290943 17.27894,-16.739667 0.20665,-9.449475 -7.19449,-17.274858 -16.53079,-17.479033 z"
       style="fill:#ffffff;fill-opacity:1;fill-rule:evenodd;stroke-width:0.0833501"
       id="path6" /><path
       d="m 317.16075,14.272127 -4.43309,0.25863 -1.76475,7.313421 c -1.62623,0.368947 -3.22379,0.886409 -4.75361,1.548837 l -5.73808,-4.855652 -3.7431,2.418819 2.08103,7.223328 c -0.65002,0.591947 -1.28124,1.218699 -1.8769,1.881446 -0.29785,0.330565 -0.58765,0.663339 -0.87003,1.010579 -0.003,0.0031 0.003,0.01379 0,0.01746 -0.28224,0.348034 -0.55221,0.6986 -0.81884,1.061665 l -7.42114,-1.298868 -1.9967,3.966523 5.42477,5.198496 c -0.11703,0.371344 -0.21915,0.744037 -0.31939,1.11755 l -0.12448,0.482121 c -0.0724,0.292549 -0.15105,0.583136 -0.21344,0.87744 -0.0102,0.04552 -0.0102,0.09268 -0.0185,0.137692 -0.0878,0.424961 -0.16812,0.847928 -0.2338,1.274277 -0.0678,0.435005 -0.11951,0.873405 -0.16588,1.308601 l -7.05535,2.600131 0.25851,4.432453 7.31367,1.764743 c 0.0925,0.406897 0.19033,0.807174 0.301,1.20884 v 0.01791 c 0.33156,1.200897 0.75359,2.382923 1.2481,3.526693 l -4.85554,5.73777 v 0.01745 l 2.41894,3.708522 v 0.01691 l 7.22353,-2.080656 5.96605,-5.528322 c -3.04076,-3.362815 -4.87812,-7.830766 -4.83958,-12.721175 0.0815,-10.35966 8.5462,-18.691499 18.90597,-18.609922 10.36023,0.08155 18.69234,8.545697 18.61075,18.905352 -0.0815,10.358799 -8.54593,18.691193 -18.90617,18.609604 -0.5598,-0.0041 -1.11279,-0.03516 -1.65974,-0.08761 l -1.04086,8.065613 v 0.01791 c 0.41362,1.186209 0.87394,2.396826 1.31663,3.596049 0.4257,1.151522 0.85817,2.293015 1.2837,3.441222 l 4.43277,-0.258132 1.76455,-7.313543 c 1.62546,-0.37142 3.22249,-0.885976 4.75393,-1.548396 l 5.73765,4.854833 3.74335,-2.418822 -2.08084,-7.223012 c 0.32797,-0.298378 0.6393,-0.607752 0.9552,-0.92365 0.62089,-0.62488 1.2286,-1.27579 1.79142,-1.968184 0.003,-0.0041 -0.002,-0.01379 1.1e-4,-0.01746 0.28286,-0.348 0.55194,-0.697812 0.81898,-1.062168 l 7.42095,1.298867 1.99651,-3.965698 -5.42478,-5.198818 c 0.1347,-0.428315 0.26008,-0.857962 0.37232,-1.289763 h -1.4e-4 c 0.0567,-0.219382 0.10952,-0.434231 0.16033,-0.653697 0.0502,-0.214044 0.0981,-0.421882 0.14326,-0.636823 0.003,-0.01086 -0.003,-0.02288 3.9e-4,-0.03485 0.0871,-0.424155 0.16788,-0.847882 0.23373,-1.274271 0.0679,-0.433808 0.1193,-0.872656 0.16556,-1.308285 l 7.05535,-2.599819 -0.25812,-4.433092 -7.31424,-1.763917 c -0.0941,-0.41232 -0.1879,-0.819563 -0.30081,-1.227045 -0.1105,-0.401242 -0.24011,-0.797009 -0.36953,-1.192592 -0.25827,-0.794127 -0.54767,-1.570141 -0.87852,-2.334609 l 4.85617,-5.737775 1.2e-4,-0.01696 -2.41944,-3.708203 6e-5,-0.01775 -7.22363,2.080907 -0.0853,-0.0861 c -1.16473,-1.267475 -2.46483,-2.437907 -3.8868,-3.479663 l 1.3,-7.420195 -3.96733,-1.996699 -5.19787,5.424452 c -1.7125,-0.539304 -3.4589,-0.890477 -5.19902,-1.075192 l -0.15186,-0.398351 c -0.008,-0.02204 -0.008,-0.04683 -0.0165,-0.06884 l 3.8e-4,-0.03485 -1.14847,-3.112221 -0.0505,-0.120943 z"
       style="fill:#ffffff;fill-opacity:1;fill-rule:evenodd;stroke-width:0.0833457"
       id="path4" /></g></svg>
